<?xml version="1.0" encoding="utf-8"?>
<!-- Svg Vector Icons : http://www.onlinewebfonts.com/icon -->
<!DOCTYPE svg PUBLIC "-//W3C//DTD SVG 1.1//EN" "http://www.w3.org/Graphics/SVG/1.1/DTD/svg11.dtd">
<svg version="1.1" xmlns="http://www.w3.org/2000/svg" xmlns:xlink="http://www.w3.org/1999/xlink" x="0px" y="0px" viewBox="0 0 1000 1000" enable-background="new 0 0 1000 1000" xml:space="preserve">
<metadata> Svg Vector Icons : http://www.onlinewebfonts.com/icon </metadata>
<g><path d="M145.3,586.6c-8.3-0.3-26.4,10.8-23.9,30.5c2.6,19.8,25.5,28.2,38.4,19.9c12.9-8.3,17.2-20.5,11.3-35.8C165.2,585.9,145.3,586.6,145.3,586.6z"/><path d="M40.6,521c0,0-0.1-0.3-0.2-0.8C40.5,520.9,40.6,521,40.6,521z"/><path d="M394.4,481.9c3.4,25.3-1.3,52.7-9.3,76.9c-8,24.2-9.9,27.8-9.9,27.8h39.8c0,0,5-29.9,7.3-62.9c2.7-39.3-6.3-66.3-21.9-97.4c-12.4-24.6-29.5-38.1-29.2-26.5c0.2,5.7,7.4,23.5,10.6,34.4C385.1,445.5,391.7,462,394.4,481.9z"/><path d="M458,491.8c2,40.7-2.7,81.5-2.7,81.5h39.8c0,0,2.3-73.9-13.3-115.9c-15.6-42.1-39.8-61.9-52.3-68.2c-12.6-6.3-12.3,1.7-4.6,15.2C432.5,418,456,451.1,458,491.8z"/><path d="M469.3,399.8c17.2,15.9,40.7,36.4,50.4,65.6c9.6,29.1,7.6,57.6,6,73.5c-1.7,15.9-3.3,21.9-3.3,21.9l40.4-25.8c0,0,10.9-75.5-33.1-115.9c-44.1-40.4-70.9-47.4-73.5-40.4C456,378.6,452,383.9,469.3,399.8z"/><path d="M473.2,750.2c-8.1-70-4.6-123.9-4.6-123.9H361.3c0,0,1.7,0.3-5.3,19.2c-8,21.5-20.8,42.7-33.1,78.8c-11.9,34.8-15.2,117.3-15.2,117.3s19.5,17.9,76.2,33.8c33.9,9.5,112.6,6.6,112.6,6.6s0.3-1-2.7-27.2C490.8,828.7,479.6,804.7,473.2,750.2z"/><path d="M629.6,559.4l-107.3,54.3c0,0-9.9,55.3,5.3,129.9c15.2,74.5,48.4,124.6,48.4,124.6s33.1,0.3,90.1-25.2c57-25.5,84.1-55,84.1-55s-49-60.3-83.5-121.2C638.3,616.5,629.6,559.4,629.6,559.4z"/><path d="M784.6,481.9c-48.7-1.7-74.2-29.8-74.2-29.8l-53.7,94.7c0,0,20.2,69.9,69.6,119.3c52.3,52.3,79.5,66.9,79.5,66.9s43.7-66.6,46.4-155.7c2.2-74.2-8.6-98.1-8.6-98.1S833.3,483.6,784.6,481.9z"/><path d="M562.7,171.3C562.7,171.2,562.7,171.2,562.7,171.3C562.7,171.2,561.4,170.8,562.7,171.3z"/><path d="M789.9,264.6c0,0-91.8-52-165-74.2c-47.9-14.5-59.8-18.3-62.3-19.1c0.6,3.6,20.6,113.1,82.8,184.7c63.3,72.9,109,90.4,145.1,90.1c36.1-0.3,72.9-24,117.3-104.7c53.3-97.1,82.2-223.9,82.2-223.9S853.9,160.6,789.9,264.6z"/><path d="M335.4,640.2c0,0-91.8-74.2-148.4-84.8c-56.6-10.6-97.7-0.7-108,1.3c-10.3,2-11.9,3.3-11.9,3.3S65.8,508.7,81,455.4c15.2-53.3,31.8-89.4,61.6-119.9c29.8-30.5,69.6-57,86.8-65.6c17.2-8.6,15.6-14.2,13.3-19.9c-2.3-5.6-12.3-6.3-29.8,3.3c-17.6,9.6-56.3,33.5-85.5,67.6C98.3,355,78.7,383.2,57.8,451.4c-16.5,54-17.7,66.1-17.4,68.8c0.1,0.5,0.2,0.8,0.2,0.8s-0.2-0.1-0.2-0.8c-1.5-5.5-10.2-40.5-5.1-100.6c5.6-65.6,23.8-109,66.9-180.2c43.1-71.2,46.4-75.2,45.7-81.5c-0.7-6.3-7-9.6-13.9,0c0,0-73.2,106.7-97.4,172.9C12.5,397.1,7.8,449.4,10.8,522.3c3,72.9,55.7,142.4,94.1,182.9c38.4,40.4,69.9,67.2,96.1,86.8c26.2,19.5,41.1,23.2,41.1,23.2s-7.2-38.3,36.4-105.3C302.1,673.5,335.4,640.2,335.4,640.2z M159.9,636.9c-12.9,8.3-35.9-0.1-38.4-19.9c-2.5-19.7,15.6-30.8,23.9-30.5c0,0,19.9-0.7,25.8,14.6C177.1,616.4,172.8,628.7,159.9,636.9z"/></g>
</svg>