<svg id="Layer_1" data-name="Layer 1" xmlns="http://www.w3.org/2000/svg" viewBox="0 0 19.86 15.88"><defs><style>.cls-1{fill:#fff;}</style></defs><title>telephone</title><path class="cls-1" d="M15,4.48a10.33,10.33,0,0,1,3.95.69,1.64,1.64,0,0,1,.92,1.4,1.25,1.25,0,0,0,.24.66,6.12,6.12,0,0,0,2.81.67,1.38,1.38,0,0,0,.65-0.1,1.23,1.23,0,0,0,0-1.8c-1.8-1.8-5-2.88-8.57-2.88S8.25,4.18,6.46,6a1.21,1.21,0,0,0-.39,1,1.39,1.39,0,0,0,.39.84,1.43,1.43,0,0,0,.67.1,6.1,6.1,0,0,0,2.79-.66,1.25,1.25,0,0,0,.24-0.65,1.63,1.63,0,0,1,.92-1.4A10.26,10.26,0,0,1,15,4.48ZM22.89,8.9a6.56,6.56,0,0,1-3.52-1,2.09,2.09,0,0,1-.52-1.18,0.71,0.71,0,0,0-.33-0.66A9.45,9.45,0,0,0,15,5.48a9.41,9.41,0,0,0-3.51.6,0.7,0.7,0,0,0-.33.66,2.07,2.07,0,0,1-.51,1.18,3.7,3.7,0,0,1-1.53.69,8.42,8.42,0,0,1-2,.27,1.9,1.9,0,0,1-1.37-.39A2.38,2.38,0,0,1,5.08,7a2.18,2.18,0,0,1,.68-1.76A10.12,10.12,0,0,1,9.84,2.89,16.76,16.76,0,0,1,15,2.12a16.84,16.84,0,0,1,5.16.78,10.23,10.23,0,0,1,4.12,2.39,2.23,2.23,0,0,1,0,3.22A1.88,1.88,0,0,1,22.89,8.9Z" transform="translate(-5.07 -2.12)"/><path class="cls-1" d="M15,9c-3.12,0-5.39,1.09-6.75,3.23a7.75,7.75,0,0,0-1.14,3.3A1.38,1.38,0,0,0,8.5,17h13a1.38,1.38,0,0,0,1.39-1.47,7.75,7.75,0,0,0-1.14-3.3C20.39,10.09,18.12,9,15,9Zm6.5,9H8.5a2.38,2.38,0,0,1-2.39-2.53,8.61,8.61,0,0,1,1.27-3.74,7.49,7.49,0,0,1,2.69-2.58A9.92,9.92,0,0,1,15,8a9.92,9.92,0,0,1,4.93,1.16,7.49,7.49,0,0,1,2.69,2.58,8.61,8.61,0,0,1,1.27,3.74A2.38,2.38,0,0,1,21.5,18Z" transform="translate(-5.07 -2.12)"/><path class="cls-1" d="M15,11a2,2,0,1,0,2,2A2,2,0,0,0,15,11Zm0,5a3,3,0,1,1,3-3A3,3,0,0,1,15,16Z" transform="translate(-5.07 -2.12)"/></svg>