<?xml version="1.0" encoding="utf-8"?>
<!-- Svg Vector Icons : http://www.onlinewebfonts.com/icon -->
<!DOCTYPE svg PUBLIC "-//W3C//DTD SVG 1.1//EN" "http://www.w3.org/Graphics/SVG/1.1/DTD/svg11.dtd">
<svg version="1.1" xmlns="http://www.w3.org/2000/svg" xmlns:xlink="http://www.w3.org/1999/xlink" x="0px" y="0px" viewBox="0 0 1000 1000" enable-background="new 0 0 1000 1000" xml:space="preserve">
<metadata> Svg Vector Icons : http://www.onlinewebfonts.com/icon </metadata>
<g><path d="M497.7,347C303,347,142.6,496.7,125.6,687.1h34.2c16.9-171.6,162-306.1,338-306.1c46.8,0,92.1,9.3,134.7,27.7c9,3.9,13.2,14.4,9.3,23.4c-3.9,9-14.4,13.2-23.4,9.3c-38.1-16.5-78.6-24.8-120.5-24.8c-156.3,0-285.4,118.6-302.2,270.5h604.4c-3.1-28.3-10.1-55.9-21-82.3c-3.7-9.1,0.6-19.5,9.7-23.2c9.1-3.7,19.5,0.6,23.2,9.7c12.7,30.7,20.7,62.9,23.9,95.8h34.1C852.8,496.7,692.5,347,497.7,347z M770.7,549.2c-3.1,2.2-6.7,3.3-10.3,3.3c-5.6,0-11.1-2.6-14.5-7.5c-17.8-25.2-39.3-47.4-63.8-66.2c-7.8-6-9.3-17.1-3.3-24.9c6-7.8,17.1-9.3,24.9-3.3c27.4,20.9,51.4,45.8,71.3,73.9C780.7,532.5,778.8,543.6,770.7,549.2z"/><path d="M703.7,450.6c-7.8-6-19-4.5-24.9,3.3c-6,7.8-4.5,19,3.3,24.9c24.5,18.7,46,41,63.8,66.2c3.5,4.9,9,7.5,14.5,7.5c3.6,0,7.1-1.1,10.3-3.3c8-5.7,9.9-16.8,4.2-24.8C755.1,496.3,731.1,471.5,703.7,450.6z"/><path d="M923.4,687.1c-16.3-208.3-182.7-375.2-390.9-392v-37.4c0-6.5-5.3-11.8-11.8-11.8h-43.1c-6.5,0-11.8,5.3-11.8,11.8v37.2C256.4,310.3,88.4,477.7,72,687.1H10v67.1h62h53.6h34.2h52.5h587.6h35.8h34.2h53.6H990v-67.1H923.4z M835.7,687.1c-3.2-33-11.2-65.1-23.9-95.8c-3.7-9.1-14.2-13.4-23.2-9.7c-9.1,3.7-13.4,14.1-9.7,23.2c10.9,26.4,17.9,54,21,82.3H195.6c16.8-151.9,145.9-270.5,302.2-270.5c41.9,0,82.4,8.4,120.5,24.8c9,3.9,19.5-0.2,23.4-9.3c3.9-9-0.2-19.5-9.3-23.4c-42.6-18.4-87.9-27.7-134.7-27.7c-176,0-321.1,134.5-338,306.1h-34.2C142.6,496.7,303,347,497.7,347c194.7,0,355.1,149.7,372.1,340.1L835.7,687.1L835.7,687.1z"/></g>
</svg>